<svg xmlns="http://www.w3.org/2000/svg" viewBox="0 0 390 220" role="img" aria-labelledby="t d"><title id="t">Script Labs QA Platform Dashboard</title><desc id="d">Teal QA dashboard showing user workflow paths, checkout, scenarios, Jira defects, and SQL metrics.</desc><defs><linearGradient id="a" x2="1" y2="1"><stop stop-color="#60dfc6"/><stop offset="1" stop-color="#168f89"/></linearGradient><filter id="g"><feGaussianBlur stdDeviation="2" result="b"/><feMerge><feMergeNode in="b"/><feMergeNode in="SourceGraphic"/></feMerge></filter></defs><rect x="1" y="1" width="388" height="218" rx="8" fill="#0a0d12" stroke="#66747e"/><path d="M9 1h372a8 8 0 0 1 8 8v7H1V9a8 8 0 0 1 8-8" fill="#1c222a"/><g><circle cx="14" cy="8" r="2.2" fill="#f17868"/><circle cx="22" cy="8" r="2.2" fill="#eab95e"/><circle cx="30" cy="8" r="2.2" fill="#75bd83"/></g><rect x="120" y="4" width="170" height="7" rx="3" fill="#303842"/><rect x="9" y="17" width="372" height="27" fill="#111821"/><text x="50" y="34" fill="#f0f2f5" font-family="Arial" font-size="9">Dashboard</text><text x="259" y="34" fill="#6ee3ce" font-family="Arial" font-size="7">Home</text><text x="288" y="34" fill="#c4cbd1" font-family="Arial" font-size="7">Courses</text><text x="330" y="34" fill="#c4cbd1" font-family="Arial" font-size="7">Settings</text><circle cx="373" cy="30" r="6" fill="#d3d9dc"/><rect x="9" y="44" width="33" height="169" fill="#121921"/><g fill="#17252a" stroke="#287f79"><rect x="17" y="53" width="18" height="18" rx="4"/><rect x="17" y="80" width="18" height="18" rx="4"/><rect x="17" y="107" width="18" height="18" rx="4"/><rect x="17" y="134" width="18" height="18" rx="4"/></g><g fill="none" stroke="#68d6c2"><path d="M22 64v-4l4-3 4 3v4m-6 0v-3h4v3M24 85v-2h4v2m-6 17h8m-6 0v6m4-6v6m-6 3h8m-8 25h8m-7-4h6"/></g><rect x="45" y="45" width="239" height="140" rx="4" fill="#11161c"/><path d="M85 116h20V74h5m-5 42V99h5m-5 17v25h5m-5-25h15m0 0h17m-17 0v39h17m-17-39h34" fill="none" stroke="#38b9a7" stroke-width="1.2"/><g fill="#182126" stroke="#42b8a8" filter="url(#g)"><rect x="54" y="101" width="31" height="31" rx="5"/><rect x="108" y="61" width="57" height="18" rx="4"/><rect x="108" y="86" width="57" height="27" rx="4"/><rect x="108" y="120" width="57" height="27" rx="4"/><rect x="108" y="154" width="57" height="25" rx="4"/><rect x="202" y="70" width="59" height="40" rx="2"/><rect x="246" y="89" width="21" height="42" rx="3"/><rect x="218" y="134" width="29" height="29" rx="3"/></g><g fill="none" stroke="#65d9c4"><circle cx="69" cy="111" r="4"/><path d="M62 124q7-10 14 0M207 75h49m-49 5h49m-46 7v19m17-19v19m17-19v19m-34-8h34m-34 5h34M250 94h13m-13 5h13m-13 20h13M222 140h21m-21 6h21m-15-10v7m8-7v7m-6-84 2-2 2 2v2h-4z"/></g><g fill="#e0e8e8" font-family="Arial" font-size="5.5"><text x="127" y="76">USER LOGIN</text><text x="123" y="98">USER</text><text x="116" y="106">MANAGEMENT</text><text x="127" y="131">CRUD</text><text x="118" y="139">OPERATIONS</text></g><path d="M125 161h23l-2 11h-17zM129 158l4 17m10-17-3 17m-8-5h13" fill="none" stroke="#65d9c4"/><rect x="289" y="45" width="92" height="140" fill="#10161c"/><g fill="#73d9c7" font-family="Arial" font-size="7"><text x="297" y="80">SCENARIOS COVERED</text><text x="297" y="115">JIRA DEFECTS LOGGED</text><text x="297" y="150">SQL QUERIES</text></g><g fill="#26383a"><rect x="297" y="85" width="86" height="5" rx="2.5"/><rect x="297" y="120" width="86" height="5" rx="2.5"/><rect x="297" y="155" width="86" height="5" rx="2.5"/></g><g fill="url(#a)"><rect x="297" y="85" width="64" height="5" rx="2.5"/><rect x="297" y="120" width="58" height="5" rx="2.5"/><rect x="297" y="155" width="37" height="5" rx="2.5"/></g><rect x="9" y="189" width="372" height="24" fill="#090d11"/><text x="52" y="207" fill="url(#a)" font-family="Arial" font-size="16" font-weight="700">SCRIPT LABS - QA PLATFORM</text></svg>